<svg width="170" height="170" viewBox="0 0 170 170" fill="none" xmlns="http://www.w3.org/2000/svg">
<path fill="#5E2EFF" d="M21.25 31.875A21.25 21.25 0 0 1 42.5 10.625h85a21.25 21.25 0 0 1 21.25 21.25v10.625H21.25V31.875Zm10.625 0v0h-.001 10.626a10.625 10.625 0 0 1 0 0H31.875Z"/>
<path fill="#5E2EFF" d="M42.5 21.25a10.625 10.625 0 0 0-10.625 10.625v10.625h21.25V31.875A10.625 10.625 0 0 0 42.5 21.25Zm31.875 0a10.625 10.625 0 0 0-10.625 10.625v10.625h21.25V31.875A10.625 10.625 0 0 0 74.375 21.25Z"/>
<path fill="#5E2EFF" d="M21.25 53.125a5.313 5.313 0 0 1 5.313-5.313h116.874a5.313 5.313 0 0 1 5.313 5.313v74.375a21.25 21.25 0 0 1-21.25 21.25H42.5a21.25 21.25 0 0 1-21.25-21.25V53.125Zm10.625 5.312v69.063A10.625 10.625 0 0 0 42.5 138.125h85a10.625 10.625 0 0 0 10.625-10.625V58.437H31.875Z"/>
</svg>
