<svg width="170" height="170" viewBox="0 0 170 170" fill="none" xmlns="http://www.w3.org/2000/svg">
<path fill="#5E2EFF" d="M0 21.25A21.25 21.25 0 0 1 21.25 0h127.5A21.25 21.25 0 0 1 170 21.25v127.5A21.25 21.25 0 0 1 148.75 170H21.25A21.25 21.25 0 0 1 0 148.75V21.25Zm159.375 0a10.623 10.623 0 0 0-10.625-10.625H21.25A10.625 10.625 0 0 0 10.625 21.25v127.5a10.625 10.625 0 0 0 10.625 10.625h127.5a10.624 10.624 0 0 0 10.625-10.625V21.25Z"/>
<g transform="translate(49 49) scale(3)">
<g fill="none" stroke="#5E2EFF" stroke-width="1.7" stroke-linecap="round" stroke-linejoin="round">
<rect x="2.5" y="4" width="19" height="16" rx="2.5"/>
<circle cx="8" cy="10" r="2.3"/>
<path d="M4.3 16.5c.4-2 1.9-3 3.7-3s3.3 1 3.7 3"/>
<line x1="15" y1="9" x2="19" y2="9"/>
<line x1="15" y1="12.5" x2="19" y2="12.5"/>
<line x1="15" y1="16" x2="18" y2="16"/>
</g>
</g>
</svg>
