<svg width="170" height="170" viewBox="0 0 170 170" fill="none" xmlns="http://www.w3.org/2000/svg">
<path d="M0 21.25C0 15.6141 2.23883 10.2091 6.22398 6.22398C10.2091 2.23883 15.6141 0 21.25 0L148.75 0C154.386 0 159.791 2.23883 163.776 6.22398C167.761 10.2091 170 15.6141 170 21.25V148.75C170 154.386 167.761 159.791 163.776 163.776C159.791 167.761 154.386 170 148.75 170H21.25C15.6141 170 10.2091 167.761 6.22398 163.776C2.23883 159.791 0 154.386 0 148.75V21.25ZM159.375 21.25C159.375 18.4321 158.256 15.7296 156.263 13.737C154.27 11.7444 151.568 10.625 148.75 10.625H21.25C18.4321 10.625 15.7296 11.7444 13.737 13.737C11.7444 15.7296 10.625 18.4321 10.625 21.25V148.75C10.625 151.568 11.7444 154.27 13.737 156.263C15.7296 158.256 18.4321 159.375 21.25 159.375H148.75C151.568 159.375 154.27 158.256 156.263 156.263C158.256 154.27 159.375 151.568 159.375 148.75V21.25Z" fill="#5E2EFF"/>
<g clip-path="url(#clip0_1501_22)">
<path d="M20 87C20 70.1997 20 61.7996 22.1256 54.9783C26.7154 40.2492 38.2492 28.7154 52.9783 24.1256C59.7996 22 68.1997 22 85 22C101.8 22 110.2 22 117.022 24.1256C131.751 28.7154 143.285 40.2492 147.875 54.9783C150 61.7996 150 70.1997 150 87C150 103.8 150 112.2 147.875 119.022C143.285 133.751 131.751 145.285 117.022 149.875C110.2 152 101.8 152 85 152C68.1997 152 59.7996 152 52.9783 149.875C38.2492 145.285 26.7154 133.751 22.1256 119.022C20 112.2 20 103.8 20 87Z" fill="#5E2EFF" fill-opacity="0.7"/>
<path opacity="0.5" d="M97.1875 81.5833H72.8125C71.3167 81.5833 70.1041 82.7959 70.1041 84.2916C70.1041 85.7874 71.3167 87 72.8125 87H97.1875C98.6832 87 99.8958 85.7874 99.8958 84.2916C99.8958 82.7959 98.6832 81.5833 97.1875 81.5833Z" fill="white"/>
<path opacity="0.5" d="M97.1875 89.7083H72.8125C71.3167 89.7083 70.1041 90.9209 70.1041 92.4166C70.1041 93.9124 71.3167 95.125 72.8125 95.125H97.1875C98.6832 95.125 99.8958 93.9124 99.8958 92.4166C99.8958 90.9209 98.6832 89.7083 97.1875 89.7083Z" fill="white"/>
<path d="M97.1875 99.1875H85C83.5042 99.1875 82.2916 100.4 82.2916 101.896C82.2916 103.392 83.5042 104.604 85 104.604H97.1875C98.6832 104.604 99.8958 103.392 99.8958 101.896C99.8958 100.4 98.6832 99.1875 97.1875 99.1875Z" fill="white"/>
<path fill-rule="evenodd" clip-rule="evenodd" d="M93.567 59.9167H106.667C109.658 59.9167 112.083 62.3418 112.083 65.3333V115.438C112.083 118.429 109.658 120.854 106.667 120.854H63.3333C60.3418 120.854 57.9166 118.429 57.9166 115.438V65.3333C57.9166 62.3418 60.3418 59.9167 63.3333 59.9167H76.433C77.9544 56.7141 81.2186 54.5 85 54.5C88.7813 54.5 92.0455 56.7141 93.567 59.9167ZM97.1875 72.1042V66.6875H105.312V114.083H64.6875V66.6875H72.8125V72.1042H97.1875ZM85 68.0417C87.2436 68.0417 89.0625 66.2228 89.0625 63.9792C89.0625 61.7355 87.2436 59.9167 85 59.9167C82.7563 59.9167 80.9375 61.7355 80.9375 63.9792C80.9375 66.2228 82.7563 68.0417 85 68.0417Z" fill="white"/>
</g>
<defs>
<clipPath id="clip0_1501_22">
<rect width="130" height="130" fill="white" transform="translate(20 22)"/>
</clipPath>
</defs>
</svg>
