<svg width="170" height="170" viewBox="0 0 170 170" fill="none" xmlns="http://www.w3.org/2000/svg">
<path fill="#5E2EFF" d="M0 21.25A21.25 21.25 0 0 1 21.25 0h127.5A21.25 21.25 0 0 1 170 21.25v127.5A21.25 21.25 0 0 1 148.75 170H21.25A21.25 21.25 0 0 1 0 148.75V21.25Zm159.375 0a10.623 10.623 0 0 0-10.625-10.625H21.25A10.625 10.625 0 0 0 10.625 21.25v127.5a10.625 10.625 0 0 0 10.625 10.625h127.5a10.624 10.624 0 0 0 10.625-10.625V21.25Z"/>
<g transform="translate(49 49) scale(3)">
<g fill="none" stroke="#5E2EFF" stroke-width="1.7" stroke-linecap="round" stroke-linejoin="round">
<path d="M18 8c0 3.613-3.869 7.429-5.393 8.795a1 1 0 0 1-1.214 0C9.87 15.429 6 11.613 6 8a6 6 0 0 1 12 0"/>
<circle cx="12" cy="8" r="2"/>
<path d="M8.714 14h-3.71a1 1 0 0 0-.948.683l-2.004 6A1 1 0 0 0 3 22h18a1 1 0 0 0 .948-1.316l-2-6a1 1 0 0 0-.949-.684h-3.712"/>
</g>
</g>
</svg>
