<svg width="170" height="170" viewBox="0 0 170 170" fill="none" xmlns="http://www.w3.org/2000/svg">
<path fill="#5E2EFF" d="M0 21.25A21.25 21.25 0 0 1 21.25 0h127.5A21.25 21.25 0 0 1 170 21.25v127.5A21.25 21.25 0 0 1 148.75 170H21.25A21.25 21.25 0 0 1 0 148.75V21.25Zm159.375 0a10.623 10.623 0 0 0-10.625-10.625H21.25A10.625 10.625 0 0 0 10.625 21.25v127.5a10.625 10.625 0 0 0 10.625 10.625h127.5a10.625 10.625 0 0 0 10.625-10.625V21.25Z"/>
<path fill="#5E2EFF" d="M85 38.25a23.375 23.375 0 1 0 0 46.75 23.375 23.375 0 0 0 0-46.75Zm-12.75 23.375a12.75 12.75 0 1 1 25.5 0 12.75 12.75 0 0 1-25.5 0Z"/>
<path fill="#5E2EFF" d="M53.125 98.813a6.375 6.375 0 0 0-6.375 6.375v23.375a6.375 6.375 0 0 0 6.375 6.375h63.75a6.375 6.375 0 0 0 6.375-6.375v-23.375a6.375 6.375 0 0 0-6.375-6.375h-63.75Zm4.25 25.5v-14.875h55.25v14.875h-55.25Z"/>
</svg>
