<svg width="170" height="170" viewBox="0 0 170 170" fill="none" xmlns="http://www.w3.org/2000/svg">
<path fill="#5E2EFF" d="M0 21.25A21.25 21.25 0 0 1 21.25 0h127.5A21.25 21.25 0 0 1 170 21.25v127.5A21.25 21.25 0 0 1 148.75 170H21.25A21.25 21.25 0 0 1 0 148.75V21.25Zm159.375 0a10.623 10.623 0 0 0-10.625-10.625H21.25A10.625 10.625 0 0 0 10.625 21.25v127.5a10.625 10.625 0 0 0 10.625 10.625h127.5a10.624 10.624 0 0 0 10.625-10.625V21.25Z"/>
<g transform="translate(49 49) scale(3)">
<g fill="none" stroke="#5E2EFF" stroke-width="1.7" stroke-linecap="round" stroke-linejoin="round">
<path d="M5 16V8l-2 2"/>
<path d="M11 16c1.5 0 2.5-1 2.5-2.3S12.5 11.4 11 11.4M11 11.4c1.4 0 2.3-.9 2.3-2S12.4 7.6 11 7.6c-1 0-1.8.5-2.2 1.2"/>
<path d="M19 16V8l-3.2 5.6h4.7"/>
</g>
</g>
</svg>
