<svg width="170" height="170" viewBox="0 0 170 170" fill="none" xmlns="http://www.w3.org/2000/svg">
<path fill="#5E2EFF" d="M0 21.25A21.25 21.25 0 0 1 21.25 0h127.5A21.25 21.25 0 0 1 170 21.25v127.5A21.25 21.25 0 0 1 148.75 170H21.25A21.25 21.25 0 0 1 0 148.75V21.25Zm159.375 0a10.623 10.623 0 0 0-10.625-10.625H21.25A10.625 10.625 0 0 0 10.625 21.25v127.5a10.625 10.625 0 0 0 10.625 10.625h127.5a10.625 10.625 0 0 0 10.625-10.625V21.25Z"/>
<path fill="#5E2EFF" d="M55.25 31.875h-19.125A4.25 4.25 0 0 0 31.875 36.125v97.75a4.25 4.25 0 0 0 4.25 4.25h19.125a4.25 4.25 0 0 0 4.25-4.25V36.125a4.25 4.25 0 0 0-4.25-4.25Zm-6.375 95.625h-6.375v-85h6.375v85Z"/>
<path fill="#5E2EFF" d="M133.875 31.875h-55.25a4.25 4.25 0 0 0-4.25 4.25v97.75a4.25 4.25 0 0 0 4.25 4.25h55.25a4.25 4.25 0 0 0 4.25-4.25V36.125a4.25 4.25 0 0 0-4.25-4.25Zm-6.375 95.625h-42.5V61.625h42.5v65.875Zm0-78.625h-42.5v-6.375h42.5v6.375Z"/>
<path fill="#5E2EFF" d="M97.75 76.5h12.75v8.5H97.75zM97.75 97.75h12.75v8.5H97.75z"/>
</svg>
