<svg width="170" height="170" viewBox="0 0 170 170" fill="none" xmlns="http://www.w3.org/2000/svg">
<path fill="#5E2EFF" d="M0 21.25A21.25 21.25 0 0 1 21.25 0h127.5A21.25 21.25 0 0 1 170 21.25v127.5A21.25 21.25 0 0 1 148.75 170H21.25A21.25 21.25 0 0 1 0 148.75V21.25Zm159.375 0a10.623 10.623 0 0 0-10.625-10.625H21.25A10.625 10.625 0 0 0 10.625 21.25v127.5a10.625 10.625 0 0 0 10.625 10.625h127.5a10.625 10.625 0 0 0 10.625-10.625V21.25Z"/>
<path fill="#5E2EFF" d="M85 42.5a23.75 23.75 0 1 0 0 47.5 23.75 23.75 0 0 0 0-47.5Zm-13.125 23.75a13.125 13.125 0 1 1 26.25 0 13.125 13.125 0 0 1-26.25 0Z"/>
<path fill="#5E2EFF" d="M85 100.625c-19.33 0-35 12.275-35 27.417v3.583A4.875 4.875 0 0 0 54.875 136h60.25a4.875 4.875 0 0 0 4.875-4.875v-3.583c0-15.142-15.67-27.417-35-27.417Zm-24.375 27.417c0-8.205 9.86-16.792 24.375-16.792s24.375 8.587 24.375 16.792v1.833h-48.75v-1.833Z"/>
</svg>
