<svg width="170" height="170" viewBox="0 0 170 170" fill="none" xmlns="http://www.w3.org/2000/svg">
<path fill="#5E2EFF" d="M0 21.25A21.25 21.25 0 0 1 21.25 0h127.5A21.25 21.25 0 0 1 170 21.25v127.5A21.25 21.25 0 0 1 148.75 170H21.25A21.25 21.25 0 0 1 0 148.75V21.25Zm159.375 0a10.623 10.623 0 0 0-10.625-10.625H21.25A10.625 10.625 0 0 0 10.625 21.25v127.5a10.625 10.625 0 0 0 10.625 10.625h127.5a10.625 10.625 0 0 0 10.625-10.625V21.25Z"/>
<path fill="#5E2EFF" d="M53.125 42.5A26.563 26.563 0 0 0 26.563 69.063v15.937A26.563 26.563 0 0 0 53.125 111.563h5.313v10.625c0 5.504 6.654 8.26 10.546 4.368l13.55-13.55a15.937 15.937 0 0 0 4.668-11.268V69.063A26.563 26.563 0 0 0 70.638 42.5H53.125Zm-15.938 26.563a15.937 15.937 0 0 1 15.938-15.938h17.512a15.937 15.937 0 0 1 15.938 15.938v32.305a5.313 5.313 0 0 1-1.556 3.756L69.063 122.18v-21.243H53.125a15.937 15.937 0 0 1-15.938-15.937V69.063Z"/>
<path fill="#5E2EFF" d="M116.875 42.5a26.563 26.563 0 0 0-26.563 26.563v15.937a26.563 26.563 0 0 0 23.073 26.331c2.706.349 5.115-1.784 5.115-4.513 0-2.246-1.671-4.115-3.88-4.527a15.938 15.938 0 0 1-13.683-15.79V69.062A15.937 15.937 0 0 1 116.875 53.125h17.5a15.937 15.937 0 0 1 15.938 15.938v15.937A15.937 15.937 0 0 1 134.375 100.938h-4.531a4.844 4.844 0 0 0-4.844 4.843c0 2.674 2.168 4.844 4.844 4.844h4.531a26.563 26.563 0 0 0 26.563-26.562V69.062A26.563 26.563 0 0 0 134.375 42.5h-17.5Z"/>
</svg>
