<svg width="24" height="24" viewBox="0 0 24 24" fill="none" xmlns="http://www.w3.org/2000/svg">
    <g clip-path="url(#clip0_14_67)">
        <path d="M0 3C0 2.20435 0.316071 1.44129 0.87868 0.87868C1.44129 0.316071 2.20435 0 3 0L21 0C21.7956 0 22.5587 0.316071 23.1213 0.87868C23.6839 1.44129 24 2.20435 24 3V21C24 21.7956 23.6839 22.5587 23.1213 23.1213C22.5587 23.6839 21.7956 24 21 24H3C2.20435 24 1.44129 23.6839 0.87868 23.1213C0.316071 22.5587 0 21.7956 0 21V3ZM22.5 3C22.5 2.60218 22.342 2.22064 22.0607 1.93934C21.7794 1.65804 21.3978 1.5 21 1.5H3C2.60218 1.5 2.22064 1.65804 1.93934 1.93934C1.65804 2.22064 1.5 2.60218 1.5 3V21C1.5 21.3978 1.65804 21.7794 1.93934 22.0607C2.22064 22.342 2.60218 22.5 3 22.5H21C21.3978 22.5 21.7794 22.342 22.0607 22.0607C22.342 21.7794 22.5 21.3978 22.5 21V3Z" fill="#5E2EFF"/>
        <line x1="4" y1="12.75" x2="20" y2="12.75" stroke="#5E2EFF" stroke-opacity="0.3" stroke-width="0.5"/>
        <line x1="4" y1="13.8269" x2="20" y2="13.8269" stroke="#5E2EFF" stroke-opacity="0.3" stroke-width="0.5"/>
        <line x1="4" y1="10.5" x2="16" y2="10.5" stroke="#5E2EFF" stroke-opacity="0.3"/>
        <line x1="4" y1="7.25" x2="17" y2="7.25" stroke="#5E2EFF" stroke-width="1.5"/>
        <path d="M4.1 16.5C4.1 16.385 4.13288 16.2789 4.18598 16.2046C4.23877 16.1307 4.30188 16.1 4.35714 16.1H8.64286C8.69812 16.1 8.76123 16.1307 8.81402 16.2046C8.86712 16.2789 8.9 16.385 8.9 16.5C8.9 16.615 8.86712 16.7211 8.81402 16.7954C8.76123 16.8693 8.69812 16.9 8.64286 16.9H4.35714C4.30188 16.9 4.23877 16.8693 4.18598 16.7954C4.13288 16.7211 4.1 16.615 4.1 16.5Z" fill="#5E2EFF" stroke="#5E2EFF" stroke-width="0.2"/>
    </g>
    <defs>
        <clipPath id="clip0_14_67">
            <rect width="24" height="24" fill="white"/>
        </clipPath>
    </defs>
</svg>
