<svg width="24" height="24" viewBox="0 0 24 24" fill="none" xmlns="http://www.w3.org/2000/svg">
    <g clip-path="url(#clip0_5_82)">
        <path d="M0 3C0 2.20435 0.316071 1.44129 0.87868 0.87868C1.44129 0.316071 2.20435 0 3 0L21 0C21.7956 0 22.5587 0.316071 23.1213 0.87868C23.6839 1.44129 24 2.20435 24 3V21C24 21.7956 23.6839 22.5587 23.1213 23.1213C22.5587 23.6839 21.7956 24 21 24H3C2.20435 24 1.44129 23.6839 0.87868 23.1213C0.316071 22.5587 0 21.7956 0 21V3ZM22.5 3C22.5 2.60218 22.342 2.22064 22.0607 1.93934C21.7794 1.65804 21.3978 1.5 21 1.5H3C2.60218 1.5 2.22064 1.65804 1.93934 1.93934C1.65804 2.22064 1.5 2.60218 1.5 3V21C1.5 21.3978 1.65804 21.7794 1.93934 22.0607C2.22064 22.342 2.60218 22.5 3 22.5H21C21.3978 22.5 21.7794 22.342 22.0607 22.0607C22.342 21.7794 22.5 21.3978 22.5 21V3Z" fill="#5E2EFF"/>
        <line x1="5" y1="16.75" x2="18" y2="16.75" stroke="#5E2EFF" stroke-opacity="0.3" stroke-width="0.5"/>
        <line x1="5" y1="17.75" x2="18" y2="17.75" stroke="#5E2EFF" stroke-opacity="0.3" stroke-width="0.5"/>
        <line x1="5" y1="14.5" x2="14" y2="14.5" stroke="#5E2EFF" stroke-opacity="0.3"/>
        <line x1="5" y1="12.25" x2="15" y2="12.25" stroke="#5E2EFF" stroke-width="1.5"/>
        <rect x="5" y="4" width="13" height="6" fill="#5E2EFF" fill-opacity="0.3"/>
        <path opacity="0.44" d="M8 8L9.5289 6.75904C9.74733 6.58234 10.152 6.55021 10.4347 6.68675L11.6103 7.26506C11.8929 7.40161 12.2976 7.36948 12.5161 7.19679L14 6" stroke="#5E2EFF" stroke-width="0.5" stroke-linecap="round" stroke-linejoin="round"/>
        <path d="M5.1 19.5C5.1 19.3809 5.12732 19.2716 5.17051 19.1961C5.2147 19.1187 5.26006 19.1 5.28571 19.1H8.71429C8.73994 19.1 8.7853 19.1187 8.82949 19.1961C8.87268 19.2716 8.9 19.3809 8.9 19.5C8.9 19.6191 8.87268 19.7284 8.82949 19.8039C8.7853 19.8813 8.73994 19.9 8.71429 19.9H5.28571C5.26006 19.9 5.2147 19.8813 5.17051 19.8039C5.12732 19.7284 5.1 19.6191 5.1 19.5Z" fill="#5E2EFF" stroke="#5E2EFF" stroke-width="0.2"/>
    </g>
    <defs>
        <clipPath id="clip0_5_82">
            <rect width="24" height="24" fill="white"/>
        </clipPath>
    </defs>
</svg>
