<svg width="24" height="24" viewBox="0 0 24 24" fill="none" xmlns="http://www.w3.org/2000/svg">
    <g clip-path="url(#clip0_5_139)">
        <path d="M0 3C0 2.20435 0.316071 1.44129 0.87868 0.87868C1.44129 0.316071 2.20435 0 3 0L21 0C21.7956 0 22.5587 0.316071 23.1213 0.87868C23.6839 1.44129 24 2.20435 24 3V21C24 21.7956 23.6839 22.5587 23.1213 23.1213C22.5587 23.6839 21.7956 24 21 24H3C2.20435 24 1.44129 23.6839 0.87868 23.1213C0.316071 22.5587 0 21.7956 0 21V3ZM22.5 3C22.5 2.60218 22.342 2.22064 22.0607 1.93934C21.7794 1.65804 21.3978 1.5 21 1.5H3C2.60218 1.5 2.22064 1.65804 1.93934 1.93934C1.65804 2.22064 1.5 2.60218 1.5 3V21C1.5 21.3978 1.65804 21.7794 1.93934 22.0607C2.22064 22.342 2.60218 22.5 3 22.5H21C21.3978 22.5 21.7794 22.342 22.0607 22.0607C22.342 21.7794 22.5 21.3978 22.5 21V3Z" fill="#5E2EFF"/>
        <path d="M8.44669 19.981V19.2351H20.3333V19.981H8.44669Z" fill="#5E2EFF" fill-opacity="0.3"/>
        <path d="M8.49722 18.0672V17.3213H16.0301V18.0672H8.49722Z" fill="#661FF4"/>
        <path d="M6.7618 18.6453C6.7618 20.3333 6.7618 20.3333 5.23616 20.3333C3.66666 20.3333 3.66666 20.3333 3.66666 18.6263C3.66666 16.9447 3.66666 16.9447 5.1923 16.9447H5.2457C6.76181 16.9489 6.7618 16.9489 6.7618 18.6453Z" fill="#5E2EFF" fill-opacity="0.3"/>
        <path d="M8.44669 13.342V12.5961H20.3333V13.342H8.44669Z" fill="#5E2EFF" fill-opacity="0.3"/>
        <path d="M8.49722 11.4283V10.6823H16.0301V11.4283H8.49722Z" fill="#661FF4"/>
        <path d="M6.7618 12.0063C6.7618 13.6942 6.7618 13.6943 5.23616 13.6943C3.66666 13.6943 3.66666 13.6942 3.66666 11.9873C3.66666 10.3057 3.66666 10.3057 5.1923 10.3057H5.2457C6.76181 10.3099 6.7618 10.3099 6.7618 12.0063Z" fill="#5E2EFF" fill-opacity="0.3"/>
        <path d="M8.44669 6.70294V5.95703H20.3333V6.70294H8.44669Z" fill="#5E2EFF" fill-opacity="0.3"/>
        <path d="M8.49722 4.78924V4.04333H16.0301V4.78924H8.49722Z" fill="#661FF4"/>
        <path d="M6.7618 5.36732C6.7618 7.0553 6.7618 7.05533 5.23616 7.05533C3.66666 7.05533 3.66666 7.05529 3.66666 5.34832C3.66666 3.66668 3.66666 3.66669 5.1923 3.66669H5.2457C6.76181 3.6709 6.7618 3.6709 6.7618 5.36732Z" fill="#5E2EFF" fill-opacity="0.3"/>
    </g>
    <defs>
        <clipPath id="clip0_5_139">
            <rect width="24" height="24" fill="white"/>
        </clipPath>
    </defs>
</svg>
