<svg width="24" height="24" viewBox="0 0 24 24" fill="none" xmlns="http://www.w3.org/2000/svg">
    <g clip-path="url(#clip0_5_52)">
        <path d="M0 3C0 2.20435 0.316071 1.44129 0.87868 0.87868C1.44129 0.316071 2.20435 0 3 0L21 0C21.7956 0 22.5587 0.316071 23.1213 0.87868C23.6839 1.44129 24 2.20435 24 3V21C24 21.7956 23.6839 22.5587 23.1213 23.1213C22.5587 23.6839 21.7956 24 21 24H3C2.20435 24 1.44129 23.6839 0.87868 23.1213C0.316071 22.5587 0 21.7956 0 21V3ZM22.5 3C22.5 2.60218 22.342 2.22064 22.0607 1.93934C21.7794 1.65804 21.3978 1.5 21 1.5H3C2.60218 1.5 2.22064 1.65804 1.93934 1.93934C1.65804 2.22064 1.5 2.60218 1.5 3V21C1.5 21.3978 1.65804 21.7794 1.93934 22.0607C2.22064 22.342 2.60218 22.5 3 22.5H21C21.3978 22.5 21.7794 22.342 22.0607 22.0607C22.342 21.7794 22.5 21.3978 22.5 21V3Z" fill="#5E2EFF"/>
        <path d="M7 14.5789V8.42105C7 7.99684 7.01429 7.62053 7.06429 7.28526C7.27143 5.48579 8.15714 5 10.5714 5H13.4286C15.8429 5 16.7286 5.48579 16.9357 7.28526C16.9857 7.62053 17 7.99684 17 8.42105V14.5789C17 15.0032 16.9857 15.3795 16.9357 15.7147C16.7286 17.5142 15.8429 18 13.4286 18H10.5714C8.15714 18 7.27143 17.5142 7.06429 15.7147C7.01429 15.3795 7 15.0032 7 14.5789Z" fill="#5E2EFF" fill-opacity="0.3" stroke="#5E2EFF" stroke-opacity="0.3" stroke-linecap="round" stroke-linejoin="round"/>
        <path opacity="0.4" d="M4 18V5" stroke="#5E2EFF" stroke-linecap="round" stroke-linejoin="round"/>
        <path opacity="0.4" d="M20 18V5" stroke="#5E2EFF" stroke-linecap="round" stroke-linejoin="round"/>
    </g>
    <defs>
        <clipPath id="clip0_5_52">
            <rect width="24" height="24" fill="white"/>
        </clipPath>
    </defs>
</svg>
