<svg width="24" height="24" viewBox="0 0 24 24" fill="none" xmlns="http://www.w3.org/2000/svg">
    <g clip-path="url(#clip0_5_18)">
        <path d="M0 3C0 2.20435 0.316071 1.44129 0.87868 0.87868C1.44129 0.316071 2.20435 0 3 0L21 0C21.7956 0 22.5587 0.316071 23.1213 0.87868C23.6839 1.44129 24 2.20435 24 3V21C24 21.7956 23.6839 22.5587 23.1213 23.1213C22.5587 23.6839 21.7956 24 21 24H3C2.20435 24 1.44129 23.6839 0.87868 23.1213C0.316071 22.5587 0 21.7956 0 21V3ZM22.5 3C22.5 2.60218 22.342 2.22064 22.0607 1.93934C21.7794 1.65804 21.3978 1.5 21 1.5H3C2.60218 1.5 2.22064 1.65804 1.93934 1.93934C1.65804 2.22064 1.5 2.60218 1.5 3V21C1.5 21.3978 1.65804 21.7794 1.93934 22.0607C2.22064 22.342 2.60218 22.5 3 22.5H21C21.3978 22.5 21.7794 22.342 22.0607 22.0607C22.342 21.7794 22.5 21.3978 22.5 21V3Z" fill="#5E2EFF"/>
        <path d="M7 6V10.586L14 17.586L18.586 13L11.586 6H7ZM6 6C6 5.73478 6.10536 5.48043 6.29289 5.29289C6.48043 5.10536 6.73478 5 7 5H11.586C11.8512 5.00006 12.1055 5.10545 12.293 5.293L19.293 12.293C19.4805 12.4805 19.5858 12.7348 19.5858 13C19.5858 13.2652 19.4805 13.5195 19.293 13.707L14.707 18.293C14.5195 18.4805 14.2652 18.5858 14 18.5858C13.7348 18.5858 13.4805 18.4805 13.293 18.293L6.293 11.293C6.10545 11.1055 6.00006 10.8512 6 10.586V6Z" fill="#5E2EFF"/>
        <path d="M9.5 9C9.36739 9 9.24021 8.94732 9.14645 8.85355C9.05268 8.75979 9 8.63261 9 8.5C9 8.36739 9.05268 8.24021 9.14645 8.14645C9.24021 8.05268 9.36739 8 9.5 8C9.63261 8 9.75979 8.05268 9.85355 8.14645C9.94732 8.24021 10 8.36739 10 8.5C10 8.63261 9.94732 8.75979 9.85355 8.85355C9.75979 8.94732 9.63261 9 9.5 9ZM9.5 10C9.89782 10 10.2794 9.84196 10.5607 9.56066C10.842 9.27936 11 8.89782 11 8.5C11 8.10218 10.842 7.72064 10.5607 7.43934C10.2794 7.15804 9.89782 7 9.5 7C9.10218 7 8.72064 7.15804 8.43934 7.43934C8.15804 7.72064 8 8.10218 8 8.5C8 8.89782 8.15804 9.27936 8.43934 9.56066C8.72064 9.84196 9.10218 10 9.5 10ZM5 11.086C5.00006 11.3512 5.10545 11.6055 5.293 11.793L12.75 19.25L12.707 19.293C12.5195 19.4805 12.2652 19.5858 12 19.5858C11.7348 19.5858 11.4805 19.4805 11.293 19.293L4.293 12.293C4.10545 12.1055 4.00006 11.8512 4 11.586V7C4 6.73478 4.10536 6.48043 4.29289 6.29289C4.48043 6.10536 4.73478 6 5 6V11.086Z" fill="#5E2EFF"/>
    </g>
    <defs>
        <clipPath id="clip0_5_18">
            <rect width="24" height="24" fill="white"/>
        </clipPath>
    </defs>
</svg>
