<svg width="256" height="256" viewBox="0 0 256 256" xmlns="http://www.w3.org/2000/svg" xmlns:xlink="http://www.w3.org/1999/xlink"><!-- Squad Modules v4 brand asset — author: Al Amin Ahamed (@mralaminahamed) --><defs>
      <linearGradient id="bg_ic" x1="0" y1="0" x2="1" y2="1">
        <stop offset="0" stop-color="#5E2EFF"/>
        <stop offset="0.55" stop-color="#4B25CC"/>
        <stop offset="1" stop-color="#381C99"/>
      </linearGradient>
      <filter id="shadow_ic" x="-20%" y="-20%" width="140%" height="150%">
        <feDropShadow dx="0" dy="22" stdDeviation="28" flood-color="#1A0A4D" flood-opacity="0.32"/>
      </filter></defs>
      <rect width="256" height="256" rx="58" fill="url(#bg_ic)"/>
      <circle cx="150" cy="22" r="2.6" fill="#FFFFFF" fill-opacity="0.16"/><circle cx="150" cy="40" r="2.6" fill="#FFFFFF" fill-opacity="0.16"/><circle cx="150" cy="58" r="2.6" fill="#FFFFFF" fill-opacity="0.16"/><circle cx="150" cy="76" r="2.6" fill="#FFFFFF" fill-opacity="0.16"/><circle cx="168" cy="22" r="2.6" fill="#FFFFFF" fill-opacity="0.16"/><circle cx="168" cy="40" r="2.6" fill="#FFFFFF" fill-opacity="0.16"/><circle cx="168" cy="58" r="2.6" fill="#FFFFFF" fill-opacity="0.16"/><circle cx="168" cy="76" r="2.6" fill="#FFFFFF" fill-opacity="0.16"/><circle cx="186" cy="22" r="2.6" fill="#FFFFFF" fill-opacity="0.16"/><circle cx="186" cy="40" r="2.6" fill="#FFFFFF" fill-opacity="0.16"/><circle cx="186" cy="58" r="2.6" fill="#FFFFFF" fill-opacity="0.16"/><circle cx="186" cy="76" r="2.6" fill="#FFFFFF" fill-opacity="0.16"/><circle cx="204" cy="22" r="2.6" fill="#FFFFFF" fill-opacity="0.16"/><circle cx="204" cy="40" r="2.6" fill="#FFFFFF" fill-opacity="0.16"/><circle cx="204" cy="58" r="2.6" fill="#FFFFFF" fill-opacity="0.16"/><circle cx="204" cy="76" r="2.6" fill="#FFFFFF" fill-opacity="0.16"/><circle cx="222" cy="22" r="2.6" fill="#FFFFFF" fill-opacity="0.16"/><circle cx="222" cy="40" r="2.6" fill="#FFFFFF" fill-opacity="0.16"/><circle cx="222" cy="58" r="2.6" fill="#FFFFFF" fill-opacity="0.16"/><circle cx="222" cy="76" r="2.6" fill="#FFFFFF" fill-opacity="0.16"/>
      <defs>
      <linearGradient id="mg_stem_ic" x1="40" y1="20" x2="40" y2="108" gradientUnits="userSpaceOnUse">
        <stop offset="0" stop-color="#FFFFFF"/><stop offset="1" stop-color="#C9B8FF"/>
      </linearGradient>
      <linearGradient id="mg_bowl_ic" x1="40" y1="18" x2="104" y2="110" gradientUnits="userSpaceOnUse">
        <stop offset="0" stop-color="#7B4DFF"/><stop offset="1" stop-color="#4B25CC"/>
      </linearGradient></defs><g transform="translate(52,50) scale(1.1875)">
      <path d="M40 24 C80 24 104 44 104 64 C104 84 80 104 40 104"
            fill="none" stroke="#FFFFFF" stroke-width="26"
            stroke-linecap="round" stroke-linejoin="round"/>
      <rect x="27" y="24" width="26" height="80" rx="13" fill="url(#mg_stem_ic)"/>
      <circle cx="40" cy="24" r="13" fill="#FFFFFF"/></g></svg>